<svg width="200" height="200" viewBox="0 0 200 200" fill="none" xmlns="http://www.w3.org/2000/svg">
<rect width="200" height="200" fill="black"/>
<path d="M84.4339 147.769V123.274C84.4339 119.925 85.9544 116.746 88.5884 114.589L168.525 49.1295C171.713 46.5187 176.583 48.7241 176.583 52.7789L176.583 77.6357C176.583 80.9964 175.053 84.1845 172.404 86.3414L92.4816 151.427C89.2909 154.025 84.4339 151.818 84.4339 147.769Z" fill="white"/>
<path d="M150.771 152.55C148.063 152.55 145.868 150.414 145.868 147.78L145.868 127.434C145.868 124.8 148.063 122.664 150.771 122.664L171.681 122.664C174.389 122.664 176.584 124.8 176.584 127.434L176.584 147.78C176.584 150.414 174.389 152.55 171.681 152.55L150.771 152.55Z" fill="white"/>
<path fill-rule="evenodd" clip-rule="evenodd" d="M23.4155 149.678C23.1483 149.089 23 148.438 23 147.753L23 127.411C23 127.271 23.0062 127.132 23.0184 126.995V123.274C23.0184 119.925 24.5385 116.746 27.172 114.589L107.092 49.1295C110.28 46.5187 115.149 48.7241 115.149 52.7789L115.149 77.6357C115.149 80.9964 113.619 84.1844 110.971 86.3413L53.7022 132.988V147.753C53.7022 150.387 51.508 152.523 48.8014 152.523H28.4414C26.3577 152.734 24.2663 151.596 23.4155 149.678Z" fill="white"/>
</svg>
